{
    "asset" : {
        "generator" : "Khronos glTF Blender I/O v1.4.40",
        "version" : "2.0"
    },
    "scene" : 0,
    "scenes" : [
        {
            "name" : "Scene",
            "nodes" : [
                0
            ]
        }
    ],
    "nodes" : [
        {
            "mesh" : 0,
            "name" : "Text.004",
            "translation" : [
                1.037839412689209,
                0.02500000223517418,
                -0.182867631316185
            ]
        }
    ],
    "meshes" : [
        {
            "name" : "Text.010",
            "primitives" : [
                {
                    "attributes" : {
                        "POSITION" : 0,
                        "NORMAL" : 1,
                        "TEXCOORD_0" : 2
                    },
                    "indices" : 3
                }
            ]
        }
    ],
    "accessors" : [
        {
            "bufferView" : 0,
            "componentType" : 5126,
            "count" : 776,
            "max" : [
                0.11441183090209961,
                0.02499999850988388,
                0.07727940380573273
            ],
            "min" : [
                -0.11441171169281006,
                -0.02500000223517418,
                -0.07713235914707184
            ],
            "type" : "VEC3"
        },
        {
            "bufferView" : 1,
            "componentType" : 5126,
            "count" : 776,
            "type" : "VEC3"
        },
        {
            "bufferView" : 2,
            "componentType" : 5126,
            "count" : 776,
            "type" : "VEC2"
        },
        {
            "bufferView" : 3,
            "componentType" : 5123,
            "count" : 1128,
            "type" : "SCALAR"
        }
    ],
    "bufferViews" : [
        {
            "buffer" : 0,
            "byteLength" : 9312,
            "byteOffset" : 0
        },
        {
            "buffer" : 0,
            "byteLength" : 9312,
            "byteOffset" : 9312
        },
        {
            "buffer" : 0,
            "byteLength" : 6208,
            "byteOffset" : 18624
        },
        {
            "buffer" : 0,
            "byteLength" : 2256,
            "byteOffset" : 24832
        }
    ],
    "buffers" : [
        {
            "byteLength" : 27088,
            "uri" : "equals.bin"
        }
    ]
}
