{
    "asset" : {
        "generator" : "Khronos glTF Blender I/O v1.4.40",
        "version" : "2.0"
    },
    "scene" : 0,
    "scenes" : [
        {
            "name" : "Scene",
            "nodes" : [
                0
            ]
        }
    ],
    "nodes" : [
        {
            "mesh" : 0,
            "name" : "Text",
            "translation" : [
                -0.08576476573944092,
                -0.021346569061279297,
                2.297149181365967
            ]
        }
    ],
    "meshes" : [
        {
            "name" : "Text",
            "primitives" : [
                {
                    "attributes" : {
                        "POSITION" : 0,
                        "NORMAL" : 1,
                        "TEXCOORD_0" : 2
                    },
                    "indices" : 3
                }
            ]
        }
    ],
    "accessors" : [
        {
            "bufferView" : 0,
            "componentType" : 5126,
            "count" : 2361,
            "max" : [
                1.0167646408081055,
                0.05000000447034836,
                0.006093906704336405
            ],
            "min" : [
                0.04235294088721275,
                0,
                -0.41069480776786804
            ],
            "type" : "VEC3"
        },
        {
            "bufferView" : 1,
            "componentType" : 5126,
            "count" : 2361,
            "type" : "VEC3"
        },
        {
            "bufferView" : 2,
            "componentType" : 5126,
            "count" : 2361,
            "type" : "VEC2"
        },
        {
            "bufferView" : 3,
            "componentType" : 5123,
            "count" : 3888,
            "type" : "SCALAR"
        }
    ],
    "bufferViews" : [
        {
            "buffer" : 0,
            "byteLength" : 28332,
            "byteOffset" : 0
        },
        {
            "buffer" : 0,
            "byteLength" : 28332,
            "byteOffset" : 28332
        },
        {
            "buffer" : 0,
            "byteLength" : 18888,
            "byteOffset" : 56664
        },
        {
            "buffer" : 0,
            "byteLength" : 7776,
            "byteOffset" : 75552
        }
    ],
    "buffers" : [
        {
            "byteLength" : 83328,
            "uri" : "404.bin"
        }
    ]
}
